<?xml version="1.0" encoding="utf-8"?>
<!-- Generator: Adobe Illustrator 15.1.0, SVG Export Plug-In . SVG Version: 6.00 Build 0)  -->
<!DOCTYPE svg PUBLIC "-//W3C//DTD SVG 1.1//EN" "http://www.w3.org/Graphics/SVG/1.1/DTD/svg11.dtd">
<svg version="1.1" id="Layer_1" xmlns="http://www.w3.org/2000/svg" xmlns:xlink="http://www.w3.org/1999/xlink" x="0px" y="0px"
	 width="512px" height="512px" viewBox="0 0 512 512" enable-background="new 0 0 512 512" xml:space="preserve">
<polygon fill="#FFCC33" points="46.921,458.984 6,0 455.656,0 414.693,458.908 230.553,509.959 "/>
<polygon fill="#F8DC3D" points="230.828,470.938 379.621,429.688 414.631,37.527 230.828,37.527 "/>
<g>
	<g>
		<polygon fill="#FFFFFF" points="231.138,192.643 231.138,248.934 300.452,264.051 293.92,337.055 231.138,354.004 
			231.138,412.569 346.541,380.584 347.385,371.074 361.985,222.876 		"/>
		<polygon fill="#FFFFFF" points="346.022,91.004 230.618,59.02 230.618,117.586 346.084,150.115 		"/>
	</g>
	<g>
		<g>
			<polygon fill="#EBEBEB" points="231.333,192.643 158.384,207.759 167.871,134.494 230.565,117.565 230.813,117.634 
				230.813,59.064 230.553,58.993 115.241,91.004 100.366,207.759 100.338,207.759 100.349,207.878 100.338,207.962 
				100.358,207.962 105.36,264.051 105.633,264.051 115.76,380.584 231.073,412.598 231.333,412.523 231.333,353.954 
				231.085,354.025 168.39,337.092 162.123,264.051 231.333,248.934 			"/>
		</g>
	</g>
</g>
</svg>
